<svg xmlns="http://www.w3.org/2000/svg" viewBox="0 0 320 240" width="320" height="240" role="img" aria-label="Three matching routes with the most specific prefix chosen"><rect width="320" height="240" rx="18" fill="#f1f5f9"/><g fill="none" stroke="#1e293b" stroke-width="2.2" stroke-linecap="round" stroke-linejoin="round"><rect x="48" y="44" width="224" height="128" rx="8" fill="#ffffff" stroke="#1e293b" stroke-width="2.2"/><rect x="64" y="62" width="16.5" height="16" rx="1.6" fill="#3b82f6" stroke="#1e293b" stroke-width="1.7"/><rect x="80.5" y="62" width="16.5" height="16" rx="1.6" fill="#3b82f6" stroke="#1e293b" stroke-width="1.7"/><rect x="97" y="62" width="16.5" height="16" rx="1.6" fill="#ffffff" stroke="#1e293b" stroke-width="1.7"/><rect x="113.5" y="62" width="16.5" height="16" rx="1.6" fill="#ffffff" stroke="#1e293b" stroke-width="1.7"/><rect x="130" y="62" width="16.5" height="16" rx="1.6" fill="#ffffff" stroke="#1e293b" stroke-width="1.7"/><rect x="146.5" y="62" width="16.5" height="16" rx="1.6" fill="#ffffff" stroke="#1e293b" stroke-width="1.7"/><rect x="163" y="62" width="16.5" height="16" rx="1.6" fill="#ffffff" stroke="#1e293b" stroke-width="1.7"/><rect x="179.5" y="62" width="16.5" height="16" rx="1.6" fill="#ffffff" stroke="#1e293b" stroke-width="1.7"/><circle cx="240" cy="70" r="11" fill="#94a3b8" stroke="#1e293b" stroke-width="2.2"/><path d="M235.6 65.6 L244.4 74.4 M244.4 65.6 L235.6 74.4" fill="none" stroke="#ffffff" stroke-width="2.42"/><rect x="64" y="96" width="16.5" height="16" rx="1.6" fill="#3b82f6" stroke="#1e293b" stroke-width="1.7"/><rect x="80.5" y="96" width="16.5" height="16" rx="1.6" fill="#3b82f6" stroke="#1e293b" stroke-width="1.7"/><rect x="97" y="96" width="16.5" height="16" rx="1.6" fill="#3b82f6" stroke="#1e293b" stroke-width="1.7"/><rect x="113.5" y="96" width="16.5" height="16" rx="1.6" fill="#3b82f6" stroke="#1e293b" stroke-width="1.7"/><rect x="130" y="96" width="16.5" height="16" rx="1.6" fill="#ffffff" stroke="#1e293b" stroke-width="1.7"/><rect x="146.5" y="96" width="16.5" height="16" rx="1.6" fill="#ffffff" stroke="#1e293b" stroke-width="1.7"/><rect x="163" y="96" width="16.5" height="16" rx="1.6" fill="#ffffff" stroke="#1e293b" stroke-width="1.7"/><rect x="179.5" y="96" width="16.5" height="16" rx="1.6" fill="#ffffff" stroke="#1e293b" stroke-width="1.7"/><circle cx="240" cy="104" r="11" fill="#94a3b8" stroke="#1e293b" stroke-width="2.2"/><path d="M235.6 99.6 L244.4 108.4 M244.4 99.6 L235.6 108.4" fill="none" stroke="#ffffff" stroke-width="2.42"/><rect x="64" y="130" width="16.5" height="16" rx="1.6" fill="#3b82f6" stroke="#1e293b" stroke-width="1.7"/><rect x="80.5" y="130" width="16.5" height="16" rx="1.6" fill="#3b82f6" stroke="#1e293b" stroke-width="1.7"/><rect x="97" y="130" width="16.5" height="16" rx="1.6" fill="#3b82f6" stroke="#1e293b" stroke-width="1.7"/><rect x="113.5" y="130" width="16.5" height="16" rx="1.6" fill="#3b82f6" stroke="#1e293b" stroke-width="1.7"/><rect x="130" y="130" width="16.5" height="16" rx="1.6" fill="#3b82f6" stroke="#1e293b" stroke-width="1.7"/><rect x="146.5" y="130" width="16.5" height="16" rx="1.6" fill="#3b82f6" stroke="#1e293b" stroke-width="1.7"/><rect x="163" y="130" width="16.5" height="16" rx="1.6" fill="#3b82f6" stroke="#1e293b" stroke-width="1.7"/><rect x="179.5" y="130" width="16.5" height="16" rx="1.6" fill="#ffffff" stroke="#1e293b" stroke-width="1.7"/><circle cx="240" cy="138" r="11" fill="#3b82f6" stroke="#1e293b" stroke-width="2.2"/><path d="M235.38 138 L239.12 141.74 L245.06 134.26" fill="none" stroke="#ffffff" stroke-width="2.42"/><line x1="160" y1="180" x2="160" y2="164.44" stroke="#3b82f6" stroke-width="2.2"/><polygon points="160,158 163.64,165 156.36,165" fill="#3b82f6" stroke="#3b82f6" stroke-width="1.1"/><polygon points="148,200 160,194 172,200 160,206" fill="#dbeafe" stroke="#1e293b" stroke-width="2.2"/><polygon points="148,200 160,206 160,218 148,212" fill="#3b82f6" stroke="#1e293b" stroke-width="2.2"/><polygon points="172,200 160,206 160,218 172,212" fill="#94a3b8" stroke="#1e293b" stroke-width="2.2"/></g></svg>