<svg xmlns="http://www.w3.org/2000/svg" viewBox="0 0 320 240" width="320" height="240" role="img" aria-label="A broadcast question about an address that one host answers"><rect width="320" height="240" rx="18" fill="#f1f5f9"/><g fill="none" stroke="#1e293b" stroke-width="2.2" stroke-linecap="round" stroke-linejoin="round"><g transform="translate(58 92) scale(0.5)"><rect x="-30" y="-34" width="60" height="42" rx="4" fill="#ffffff" stroke="#1e293b" stroke-width="2.2"/><rect x="-24" y="-28" width="48" height="30" rx="2" fill="#dbeafe" stroke="none" stroke-width="2.2"/><polygon points="-40,8 40,8 34,18 -34,18" fill="#94a3b8" stroke="#1e293b" stroke-width="2.2"/></g><rect x="122" y="83" width="76" height="26" rx="5" fill="#ffffff" stroke="#1e293b" stroke-width="2.2"/><rect x="135.75" y="97" width="6.5" height="7" rx="1.6" fill="#94a3b8" stroke="none" stroke-width="2.2"/><rect x="146.25" y="97" width="6.5" height="7" rx="1.6" fill="#94a3b8" stroke="none" stroke-width="2.2"/><rect x="156.75" y="97" width="6.5" height="7" rx="1.6" fill="#94a3b8" stroke="none" stroke-width="2.2"/><rect x="167.25" y="97" width="6.5" height="7" rx="1.6" fill="#94a3b8" stroke="none" stroke-width="2.2"/><rect x="177.75" y="97" width="6.5" height="7" rx="1.6" fill="#94a3b8" stroke="none" stroke-width="2.2"/><circle cx="131" cy="92" r="2.4" fill="#3b82f6"/><circle cx="140" cy="92" r="2.4" fill="#dbeafe"/><g transform="translate(262 92) scale(0.5)"><rect x="-30" y="-34" width="60" height="42" rx="4" fill="#ffffff" stroke="#1e293b" stroke-width="2.2"/><rect x="-24" y="-28" width="48" height="30" rx="2" fill="#dbeafe" stroke="none" stroke-width="2.2"/><polygon points="-40,8 40,8 34,18 -34,18" fill="#94a3b8" stroke="#1e293b" stroke-width="2.2"/></g><line x1="88" y1="96" x2="122" y2="96" stroke="#94a3b8" stroke-width="2.2"/><line x1="198" y1="96" x2="232" y2="96" stroke="#94a3b8" stroke-width="2.2"/><path d="M145.5 65.24 A16 16 0 0 1 174.5 65.24" fill="none" stroke="#94a3b8" stroke-width="2.2"/><path d="M136.44 61.01 A26 26 0 0 1 183.56 61.01" fill="none" stroke="#94a3b8" stroke-width="2.2"/><path d="M127.37 56.79 A36 36 0 0 1 192.63 56.79" fill="none" stroke="#94a3b8" stroke-width="2.2"/><path d="M92 74 Q110 62 123.51 71" fill="none" stroke="#3b82f6" stroke-width="2.2"/><polygon points="128,74 121.28,73.27 124.74,68.08" fill="#3b82f6" stroke="#3b82f6" stroke-width="1.1"/><path d="M228 116 Q210 128 196.49 119" fill="none" stroke="#1e293b" stroke-width="2.2" stroke-dasharray="6 5"/><polygon points="192,116 198.72,116.73 195.26,121.92" fill="#1e293b" stroke="#1e293b" stroke-width="1.1"/><rect x="74" y="150" width="132" height="62" rx="8" fill="#ffffff" stroke="#1e293b" stroke-width="2.2"/><rect x="84" y="162" width="49.28" height="6" rx="3" fill="#3b82f6" stroke="none" stroke-width="2.2"/><rect x="142.24" y="162" width="53.76" height="6" rx="3" fill="#dbeafe" stroke="none" stroke-width="2.2"/><rect x="84" y="182" width="49.28" height="6" rx="3" fill="#94a3b8" stroke="none" stroke-width="2.2"/><rect x="142.24" y="182" width="53.76" height="6" rx="3" fill="#94a3b8" stroke="none" stroke-width="2.2"/><line x1="210" y1="180" x2="230.48" y2="180" stroke="#94a3b8" stroke-width="2.2"/><polygon points="236,180 230,183.12 230,176.88" fill="#94a3b8" stroke="#94a3b8" stroke-width="1.1"/><path d="M252 169 L288 169 L288 191 L252 191 L244 180 Z" fill="#dbeafe" stroke="#1e293b" stroke-width="2.2"/><circle cx="255" cy="180" r="2.4" fill="#1e293b"/></g></svg>