<svg xmlns="http://www.w3.org/2000/svg" viewBox="0 0 320 240" width="320" height="240" role="img" aria-label="One address block divided into three smaller subnets"><rect width="320" height="240" rx="18" fill="#f1f5f9"/><g fill="none" stroke="#1e293b" stroke-width="2.2" stroke-linecap="round" stroke-linejoin="round"><rect x="48" y="54" width="224" height="26" rx="4" fill="#dbeafe" stroke="#1e293b" stroke-width="2.2"/><rect x="60" y="63" width="60" height="8" rx="4" fill="#94a3b8" stroke="none" stroke-width="2.2"/><rect x="140" y="63" width="120" height="8" rx="4" fill="#94a3b8" stroke="none" stroke-width="2.2"/><line x1="160" y1="90" x2="160" y2="105.56" stroke="#3b82f6" stroke-width="2.2"/><polygon points="160,112 156.36,105 163.64,105" fill="#3b82f6" stroke="#3b82f6" stroke-width="1.1"/><rect x="48" y="122" width="68" height="24" rx="4" fill="#ffffff" stroke="#1e293b" stroke-width="2.2"/><rect x="58" y="130" width="48" height="8" rx="4" fill="#3b82f6" stroke="none" stroke-width="2.2"/><rect x="126" y="122" width="68" height="24" rx="4" fill="#ffffff" stroke="#1e293b" stroke-width="2.2"/><rect x="136" y="130" width="48" height="8" rx="4" fill="#3b82f6" stroke="none" stroke-width="2.2"/><rect x="204" y="122" width="68" height="24" rx="4" fill="#ffffff" stroke="#1e293b" stroke-width="2.2"/><rect x="214" y="130" width="48" height="8" rx="4" fill="#3b82f6" stroke="none" stroke-width="2.2"/><g transform="translate(82 196) scale(0.4)"><rect x="-30" y="-34" width="60" height="42" rx="4" fill="#ffffff" stroke="#1e293b" stroke-width="2.2"/><rect x="-24" y="-28" width="48" height="30" rx="2" fill="#dbeafe" stroke="none" stroke-width="2.2"/><polygon points="-40,8 40,8 34,18 -34,18" fill="#94a3b8" stroke="#1e293b" stroke-width="2.2"/></g><g transform="translate(160 196) scale(0.4)"><rect x="-30" y="-34" width="60" height="42" rx="4" fill="#ffffff" stroke="#1e293b" stroke-width="2.2"/><rect x="-24" y="-28" width="48" height="30" rx="2" fill="#dbeafe" stroke="none" stroke-width="2.2"/><polygon points="-40,8 40,8 34,18 -34,18" fill="#94a3b8" stroke="#1e293b" stroke-width="2.2"/></g><g transform="translate(238 196) scale(0.4)"><rect x="-30" y="-34" width="60" height="42" rx="4" fill="#ffffff" stroke="#1e293b" stroke-width="2.2"/><rect x="-24" y="-28" width="48" height="30" rx="2" fill="#dbeafe" stroke="none" stroke-width="2.2"/><polygon points="-40,8 40,8 34,18 -34,18" fill="#94a3b8" stroke="#1e293b" stroke-width="2.2"/></g><line x1="82" y1="146" x2="82" y2="176" stroke="#94a3b8" stroke-width="2.2"/><line x1="160" y1="146" x2="160" y2="176" stroke="#94a3b8" stroke-width="2.2"/><line x1="238" y1="146" x2="238" y2="176" stroke="#94a3b8" stroke-width="2.2"/></g></svg>