<svg xmlns="http://www.w3.org/2000/svg" viewBox="0 0 320 240" width="320" height="240" role="img" aria-label="An eight group address, far larger than the four part one"><rect width="320" height="240" rx="18" fill="#f1f5f9"/><g fill="none" stroke="#1e293b" stroke-width="2.2" stroke-linecap="round" stroke-linejoin="round"><rect x="28" y="58" width="264" height="32" rx="4" fill="#ffffff" stroke="#1e293b" stroke-width="2.2"/><rect x="35.26" y="71" width="18.48" height="6" rx="3" fill="#94a3b8" stroke="none" stroke-width="2.2"/><line x1="61" y1="58" x2="61" y2="90" stroke="#94a3b8" stroke-width="1.6"/><rect x="68.26" y="71" width="18.48" height="6" rx="3" fill="#94a3b8" stroke="none" stroke-width="2.2"/><line x1="94" y1="58" x2="94" y2="90" stroke="#94a3b8" stroke-width="1.6"/><rect x="101.26" y="71" width="18.48" height="6" rx="3" fill="#94a3b8" stroke="none" stroke-width="2.2"/><line x1="127" y1="58" x2="127" y2="90" stroke="#94a3b8" stroke-width="1.6"/><rect x="134.26" y="71" width="18.48" height="6" rx="3" fill="#94a3b8" stroke="none" stroke-width="2.2"/><line x1="160" y1="58" x2="160" y2="90" stroke="#94a3b8" stroke-width="1.6"/><rect x="167.26" y="71" width="18.48" height="6" rx="3" fill="#3b82f6" stroke="none" stroke-width="2.2"/><line x1="193" y1="58" x2="193" y2="90" stroke="#94a3b8" stroke-width="1.6"/><rect x="200.26" y="71" width="18.48" height="6" rx="3" fill="#3b82f6" stroke="none" stroke-width="2.2"/><line x1="226" y1="58" x2="226" y2="90" stroke="#94a3b8" stroke-width="1.6"/><rect x="233.26" y="71" width="18.48" height="6" rx="3" fill="#3b82f6" stroke="none" stroke-width="2.2"/><line x1="259" y1="58" x2="259" y2="90" stroke="#94a3b8" stroke-width="1.6"/><rect x="266.26" y="71" width="18.48" height="6" rx="3" fill="#3b82f6" stroke="none" stroke-width="2.2"/><rect x="28" y="120" width="92" height="24" rx="4" fill="#ffffff" stroke="#1e293b" stroke-width="2.2"/><rect x="38" y="128" width="72" height="8" rx="4" fill="#94a3b8" stroke="none" stroke-width="2.2"/><line x1="130" y1="132" x2="155.56" y2="132" stroke="#94a3b8" stroke-width="2.2"/><polygon points="162,132 155,135.64 155,128.36" fill="#94a3b8" stroke="#94a3b8" stroke-width="1.1"/><rect x="196" y="121" width="72" height="22" rx="11" fill="#ffffff" stroke="#1e293b" stroke-width="2.2"/><rect x="203" y="129" width="58" height="6" rx="3" fill="#3b82f6" stroke="none" stroke-width="2.2"/></g></svg>