<svg xmlns="http://www.w3.org/2000/svg" viewBox="0 0 320 240" width="320" height="240" role="img" aria-label="A short device-to-device link beside a room-sized wireless link"><rect width="320" height="240" rx="18" fill="#f1f5f9"/><g fill="none" stroke="#1e293b" stroke-width="2.2" stroke-linecap="round" stroke-linejoin="round"><g transform="translate(70 76) scale(0.9)"><rect x="-13" y="-22" width="26" height="44" rx="5" fill="#ffffff" stroke="#1e293b" stroke-width="2.2"/><rect x="-8.5" y="-17" width="17" height="30" rx="1.5" fill="#dbeafe" stroke="none" stroke-width="2.2"/><circle cx="0" cy="17" r="2.1" fill="#94a3b8"/></g><path d="M105.9 66.1 A14 14 0 0 1 105.9 85.9" fill="none" stroke="#3b82f6" stroke-width="2.2"/><path d="M113.68 58.32 A25 25 0 0 1 113.68 93.68" fill="none" stroke="#3b82f6" stroke-width="2.2"/><g transform="translate(152 76) scale(0.9)"><rect x="-13" y="-22" width="26" height="44" rx="5" fill="#ffffff" stroke="#1e293b" stroke-width="2.2"/><rect x="-8.5" y="-17" width="17" height="30" rx="1.5" fill="#dbeafe" stroke="none" stroke-width="2.2"/><circle cx="0" cy="17" r="2.1" fill="#94a3b8"/></g><line x1="24" y1="124" x2="296" y2="124" stroke="#94a3b8" stroke-width="1.4" stroke-dasharray="4 6"/><g transform="translate(70 176) scale(0.78)"><path d="M-22 6 A22 22 0 0 1 22 6 Z" fill="#ffffff" stroke="#1e293b" stroke-width="2.2"/><rect x="-24" y="6" width="48" height="9" rx="4" fill="#ffffff" stroke="#1e293b" stroke-width="2.2"/><circle cx="0" cy="10.5" r="2.2" fill="#3b82f6"/></g><path d="M108.16 162.73 A18 18 0 0 1 108.16 189.27" fill="none" stroke="#3b82f6" stroke-width="2.2"/><path d="M119.65 150.2 A35 35 0 0 1 119.65 201.8" fill="none" stroke="#3b82f6" stroke-width="2.2"/><path d="M131.13 137.66 A52 52 0 0 1 131.13 214.34" fill="none" stroke="#3b82f6" stroke-width="2.2"/><path d="M142.62 125.13 A69 69 0 0 1 142.62 226.87" fill="none" stroke="#3b82f6" stroke-width="2.2"/><path d="M154.1 112.59 A86 86 0 0 1 154.1 239.41" fill="none" stroke="#3b82f6" stroke-width="2.2"/><g transform="translate(232 176) scale(0.56)"><rect x="-30" y="-34" width="60" height="42" rx="4" fill="#ffffff" stroke="#1e293b" stroke-width="2.2"/><rect x="-24" y="-28" width="48" height="30" rx="2" fill="#dbeafe" stroke="none" stroke-width="2.2"/><polygon points="-40,8 40,8 34,18 -34,18" fill="#94a3b8" stroke="#1e293b" stroke-width="2.2"/></g></g></svg>