<svg xmlns="http://www.w3.org/2000/svg" viewBox="0 0 320 240" width="320" height="240" role="img" aria-label="One shared collision domain beside two router-bounded broadcast domains"><rect width="320" height="240" rx="18" fill="#f1f5f9"/><g fill="none" stroke="#1e293b" stroke-width="2.2" stroke-linecap="round" stroke-linejoin="round"><circle cx="84" cy="118" r="58" fill="none" stroke="#94a3b8" stroke-width="2.2"/><rect x="52" y="81" width="64" height="22" rx="4" fill="#dbeafe" stroke="#1e293b" stroke-width="2.2"/><rect x="64" y="93" width="8" height="6" rx="1.6" fill="#94a3b8" stroke="none" stroke-width="2.2"/><rect x="78" y="93" width="8" height="6" rx="1.6" fill="#94a3b8" stroke="none" stroke-width="2.2"/><rect x="92" y="93" width="8" height="6" rx="1.6" fill="#94a3b8" stroke="none" stroke-width="2.2"/><rect x="106" y="93" width="8" height="6" rx="1.6" fill="#94a3b8" stroke="none" stroke-width="2.2"/><line x1="58" y1="103" x2="58" y2="132" stroke="#94a3b8" stroke-width="2.2"/><line x1="84" y1="103" x2="84" y2="132" stroke="#94a3b8" stroke-width="2.2"/><line x1="112" y1="103" x2="112" y2="132" stroke="#94a3b8" stroke-width="2.2"/><circle cx="58" cy="140" r="5" fill="#dbeafe" stroke="#1e293b" stroke-width="2.2"/><circle cx="84" cy="140" r="5" fill="#dbeafe" stroke="#1e293b" stroke-width="2.2"/><circle cx="112" cy="140" r="5" fill="#dbeafe" stroke="#1e293b" stroke-width="2.2"/><rect x="180" y="38" width="116" height="72" rx="12" fill="none" stroke="#3b82f6" stroke-width="2.2" stroke-dasharray="7 5"/><rect x="204" y="48" width="68" height="24" rx="5" fill="#ffffff" stroke="#1e293b" stroke-width="2.2"/><rect x="219" y="60" width="6.5" height="7" rx="1.6" fill="#94a3b8" stroke="none" stroke-width="2.2"/><rect x="229.5" y="60" width="6.5" height="7" rx="1.6" fill="#94a3b8" stroke="none" stroke-width="2.2"/><rect x="240" y="60" width="6.5" height="7" rx="1.6" fill="#94a3b8" stroke="none" stroke-width="2.2"/><rect x="250.5" y="60" width="6.5" height="7" rx="1.6" fill="#94a3b8" stroke="none" stroke-width="2.2"/><circle cx="213" cy="57" r="2.4" fill="#3b82f6"/><circle cx="222" cy="57" r="2.4" fill="#dbeafe"/><circle cx="216" cy="94" r="5" fill="#dbeafe" stroke="#1e293b" stroke-width="2.2"/><circle cx="260" cy="94" r="5" fill="#dbeafe" stroke="#1e293b" stroke-width="2.2"/><rect x="206" y="118" width="64" height="24" rx="12" fill="#ffffff" stroke="#1e293b" stroke-width="2.2"/><line x1="221.36" y1="134.56" x2="249.85" y2="126.75" stroke="#3b82f6" stroke-width="2"/><polygon points="254.64,125.44 250.17,129.58 248.69,124.16" fill="#3b82f6" stroke="#3b82f6" stroke-width="1"/><line x1="254.64" y1="134.56" x2="226.15" y2="126.75" stroke="#1e293b" stroke-width="2"/><polygon points="221.36,125.44 227.31,124.16 225.83,129.58" fill="#1e293b" stroke="#1e293b" stroke-width="1"/><line x1="238" y1="110" x2="238" y2="118" stroke="#94a3b8" stroke-width="2.2"/><line x1="238" y1="142" x2="238" y2="150" stroke="#94a3b8" stroke-width="2.2"/><rect x="180" y="150" width="116" height="72" rx="12" fill="none" stroke="#3b82f6" stroke-width="2.2" stroke-dasharray="7 5"/><rect x="204" y="160" width="68" height="24" rx="5" fill="#ffffff" stroke="#1e293b" stroke-width="2.2"/><rect x="219" y="172" width="6.5" height="7" rx="1.6" fill="#94a3b8" stroke="none" stroke-width="2.2"/><rect x="229.5" y="172" width="6.5" height="7" rx="1.6" fill="#94a3b8" stroke="none" stroke-width="2.2"/><rect x="240" y="172" width="6.5" height="7" rx="1.6" fill="#94a3b8" stroke="none" stroke-width="2.2"/><rect x="250.5" y="172" width="6.5" height="7" rx="1.6" fill="#94a3b8" stroke="none" stroke-width="2.2"/><circle cx="213" cy="169" r="2.4" fill="#3b82f6"/><circle cx="222" cy="169" r="2.4" fill="#dbeafe"/><circle cx="216" cy="206" r="5" fill="#dbeafe" stroke="#1e293b" stroke-width="2.2"/><circle cx="260" cy="206" r="5" fill="#dbeafe" stroke="#1e293b" stroke-width="2.2"/></g></svg>