<svg xmlns="http://www.w3.org/2000/svg" viewBox="0 0 320 240" width="320" height="240" role="img" aria-label="A switch port that admits a known device and refuses an unknown one"><rect width="320" height="240" rx="18" fill="#f1f5f9"/><g fill="none" stroke="#1e293b" stroke-width="2.2" stroke-linecap="round" stroke-linejoin="round"><rect x="102" y="55" width="116" height="30" rx="5" fill="#ffffff" stroke="#1e293b" stroke-width="2.2"/><rect x="130.5" y="73" width="6.5" height="7" rx="1.6" fill="#94a3b8" stroke="none" stroke-width="2.2"/><rect x="141" y="73" width="6.5" height="7" rx="1.6" fill="#3b82f6" stroke="none" stroke-width="2.2"/><rect x="151.5" y="73" width="6.5" height="7" rx="1.6" fill="#94a3b8" stroke="none" stroke-width="2.2"/><rect x="162" y="73" width="6.5" height="7" rx="1.6" fill="#94a3b8" stroke="none" stroke-width="2.2"/><rect x="172.5" y="73" width="6.5" height="7" rx="1.6" fill="#94a3b8" stroke="none" stroke-width="2.2"/><rect x="183" y="73" width="6.5" height="7" rx="1.6" fill="#94a3b8" stroke="none" stroke-width="2.2"/><circle cx="111" cy="64" r="2.4" fill="#3b82f6"/><circle cx="120" cy="64" r="2.4" fill="#dbeafe"/><g transform="translate(160 128) scale(0.9)"><path d="M-9 -6 L-9 -13 A9 9 0 0 1 9 -13 L9 -6" fill="none" stroke="#1e293b" stroke-width="2.2"/><rect x="-15" y="-6" width="30" height="24" rx="5" fill="#3b82f6" stroke="#1e293b" stroke-width="2.2"/><circle cx="0" cy="6" r="3" fill="#ffffff"/></g><g transform="translate(72 176) scale(0.46)"><rect x="-30" y="-34" width="60" height="42" rx="4" fill="#ffffff" stroke="#1e293b" stroke-width="2.2"/><rect x="-24" y="-28" width="48" height="30" rx="2" fill="#dbeafe" stroke="none" stroke-width="2.2"/><polygon points="-40,8 40,8 34,18 -34,18" fill="#94a3b8" stroke="#1e293b" stroke-width="2.2"/></g><circle cx="72" cy="210" r="12" fill="#3b82f6" stroke="#1e293b" stroke-width="2.2"/><path d="M66.96 210 L71.04 214.08 L77.52 205.92" fill="none" stroke="#ffffff" stroke-width="2.42"/><line x1="72" y1="152" x2="108" y2="100" stroke="#3b82f6" stroke-width="2.2"/><g transform="translate(248 176) scale(0.46)"><rect x="-30" y="-34" width="60" height="42" rx="4" fill="#ffffff" stroke="#1e293b" stroke-width="2.2"/><rect x="-24" y="-28" width="48" height="30" rx="2" fill="#dbeafe" stroke="none" stroke-width="2.2"/><polygon points="-40,8 40,8 34,18 -34,18" fill="#94a3b8" stroke="#1e293b" stroke-width="2.2"/></g><circle cx="248" cy="210" r="12" fill="#94a3b8" stroke="#1e293b" stroke-width="2.2"/><path d="M243.2 205.2 L252.8 214.8 M252.8 205.2 L243.2 214.8" fill="none" stroke="#ffffff" stroke-width="2.42"/><line x1="248" y1="152" x2="212" y2="100" stroke="#94a3b8" stroke-width="2.2" stroke-dasharray="6 5"/></g></svg>