<svg xmlns="http://www.w3.org/2000/svg" viewBox="0 0 320 240" width="320" height="240" role="img" aria-label="A learned table mapping each hardware address to a switch port"><rect width="320" height="240" rx="18" fill="#f1f5f9"/><g fill="none" stroke="#1e293b" stroke-width="2.2" stroke-linecap="round" stroke-linejoin="round"><rect x="100" y="47" width="120" height="30" rx="5" fill="#ffffff" stroke="#1e293b" stroke-width="2.2"/><rect x="130.5" y="65" width="6.5" height="7" rx="1.6" fill="#94a3b8" stroke="none" stroke-width="2.2"/><rect x="141" y="65" width="6.5" height="7" rx="1.6" fill="#3b82f6" stroke="none" stroke-width="2.2"/><rect x="151.5" y="65" width="6.5" height="7" rx="1.6" fill="#94a3b8" stroke="none" stroke-width="2.2"/><rect x="162" y="65" width="6.5" height="7" rx="1.6" fill="#94a3b8" stroke="none" stroke-width="2.2"/><rect x="172.5" y="65" width="6.5" height="7" rx="1.6" fill="#94a3b8" stroke="none" stroke-width="2.2"/><rect x="183" y="65" width="6.5" height="7" rx="1.6" fill="#94a3b8" stroke="none" stroke-width="2.2"/><circle cx="109" cy="56" r="2.4" fill="#3b82f6"/><circle cx="118" cy="56" r="2.4" fill="#dbeafe"/><line x1="160" y1="92" x2="160" y2="109.56" stroke="#3b82f6" stroke-width="2.2"/><polygon points="160,116 156.36,109 163.64,109" fill="#3b82f6" stroke="#3b82f6" stroke-width="1.1"/><rect x="72" y="124" width="176" height="84" rx="8" fill="#ffffff" stroke="#1e293b" stroke-width="2.2"/><rect x="82" y="136" width="68.64" height="6" rx="3" fill="#94a3b8" stroke="none" stroke-width="2.2"/><rect x="163.12" y="136" width="74.88" height="6" rx="3" fill="#94a3b8" stroke="none" stroke-width="2.2"/><rect x="82" y="151.5" width="68.64" height="6" rx="3" fill="#3b82f6" stroke="none" stroke-width="2.2"/><rect x="163.12" y="151.5" width="74.88" height="6" rx="3" fill="#dbeafe" stroke="none" stroke-width="2.2"/><rect x="82" y="167" width="68.64" height="6" rx="3" fill="#94a3b8" stroke="none" stroke-width="2.2"/><rect x="163.12" y="167" width="74.88" height="6" rx="3" fill="#94a3b8" stroke="none" stroke-width="2.2"/><rect x="82" y="182.5" width="68.64" height="6" rx="3" fill="#94a3b8" stroke="none" stroke-width="2.2"/><rect x="163.12" y="182.5" width="74.88" height="6" rx="3" fill="#94a3b8" stroke="none" stroke-width="2.2"/><g transform="translate(46 62) scale(0.4)"><rect x="-30" y="-34" width="60" height="42" rx="4" fill="#ffffff" stroke="#1e293b" stroke-width="2.2"/><rect x="-24" y="-28" width="48" height="30" rx="2" fill="#dbeafe" stroke="none" stroke-width="2.2"/><polygon points="-40,8 40,8 34,18 -34,18" fill="#94a3b8" stroke="#1e293b" stroke-width="2.2"/></g><line x1="76" y1="62" x2="100" y2="62" stroke="#94a3b8" stroke-width="2.2"/><g transform="translate(274 62) scale(0.4)"><rect x="-30" y="-34" width="60" height="42" rx="4" fill="#ffffff" stroke="#1e293b" stroke-width="2.2"/><rect x="-24" y="-28" width="48" height="30" rx="2" fill="#dbeafe" stroke="none" stroke-width="2.2"/><polygon points="-40,8 40,8 34,18 -34,18" fill="#94a3b8" stroke="#1e293b" stroke-width="2.2"/></g><line x1="244" y1="62" x2="220" y2="62" stroke="#94a3b8" stroke-width="2.2"/></g></svg>