<svg xmlns="http://www.w3.org/2000/svg" viewBox="0 0 320 240" width="320" height="240" role="img" aria-label="One switch carrying two isolated groups of ports"><rect width="320" height="240" rx="18" fill="#f1f5f9"/><g fill="none" stroke="#1e293b" stroke-width="2.2" stroke-linecap="round" stroke-linejoin="round"><rect x="95" y="62" width="130" height="32" rx="5" fill="#ffffff" stroke="#1e293b" stroke-width="2.2"/><rect x="120" y="82" width="6.5" height="7" rx="1.6" fill="#3b82f6" stroke="none" stroke-width="2.2"/><rect x="130.5" y="82" width="6.5" height="7" rx="1.6" fill="#3b82f6" stroke="none" stroke-width="2.2"/><rect x="141" y="82" width="6.5" height="7" rx="1.6" fill="#3b82f6" stroke="none" stroke-width="2.2"/><rect x="151.5" y="82" width="6.5" height="7" rx="1.6" fill="#94a3b8" stroke="none" stroke-width="2.2"/><rect x="162" y="82" width="6.5" height="7" rx="1.6" fill="#94a3b8" stroke="none" stroke-width="2.2"/><rect x="172.5" y="82" width="6.5" height="7" rx="1.6" fill="#94a3b8" stroke="none" stroke-width="2.2"/><rect x="183" y="82" width="6.5" height="7" rx="1.6" fill="#3b82f6" stroke="none" stroke-width="2.2"/><rect x="193.5" y="82" width="6.5" height="7" rx="1.6" fill="#94a3b8" stroke="none" stroke-width="2.2"/><circle cx="104" cy="71" r="2.4" fill="#3b82f6"/><circle cx="113" cy="71" r="2.4" fill="#dbeafe"/><rect x="24" y="128" width="122" height="84" rx="12" fill="none" stroke="#3b82f6" stroke-width="2.2" stroke-dasharray="7 5"/><g transform="translate(56 168) scale(0.42)"><rect x="-30" y="-34" width="60" height="42" rx="4" fill="#ffffff" stroke="#1e293b" stroke-width="2.2"/><rect x="-24" y="-28" width="48" height="30" rx="2" fill="#dbeafe" stroke="none" stroke-width="2.2"/><polygon points="-40,8 40,8 34,18 -34,18" fill="#94a3b8" stroke="#1e293b" stroke-width="2.2"/></g><g transform="translate(114 168) scale(0.42)"><rect x="-30" y="-34" width="60" height="42" rx="4" fill="#ffffff" stroke="#1e293b" stroke-width="2.2"/><rect x="-24" y="-28" width="48" height="30" rx="2" fill="#dbeafe" stroke="none" stroke-width="2.2"/><polygon points="-40,8 40,8 34,18 -34,18" fill="#94a3b8" stroke="#1e293b" stroke-width="2.2"/></g><rect x="174" y="128" width="122" height="84" rx="12" fill="none" stroke="#94a3b8" stroke-width="2.2" stroke-dasharray="7 5"/><g transform="translate(206 168) scale(0.42)"><rect x="-30" y="-34" width="60" height="42" rx="4" fill="#ffffff" stroke="#1e293b" stroke-width="2.2"/><rect x="-24" y="-28" width="48" height="30" rx="2" fill="#dbeafe" stroke="none" stroke-width="2.2"/><polygon points="-40,8 40,8 34,18 -34,18" fill="#94a3b8" stroke="#1e293b" stroke-width="2.2"/></g><g transform="translate(264 168) scale(0.42)"><rect x="-30" y="-34" width="60" height="42" rx="4" fill="#ffffff" stroke="#1e293b" stroke-width="2.2"/><rect x="-24" y="-28" width="48" height="30" rx="2" fill="#dbeafe" stroke="none" stroke-width="2.2"/><polygon points="-40,8 40,8 34,18 -34,18" fill="#94a3b8" stroke="#1e293b" stroke-width="2.2"/></g><line x1="112" y1="94" x2="78" y2="128" stroke="#3b82f6" stroke-width="2.2"/><line x1="196" y1="94" x2="236" y2="128" stroke="#94a3b8" stroke-width="2.2"/></g></svg>