<svg xmlns="http://www.w3.org/2000/svg" viewBox="0 0 320 240" width="320" height="240" role="img" aria-label="An original packet carried whole as cargo inside a new outer packet through the tunnel"><rect width="320" height="240" rx="18" fill="#f1f5f9"/><g fill="none" stroke="#1e293b" stroke-width="2.2" stroke-linecap="round" stroke-linejoin="round"><rect x="25" y="108" width="62" height="24" rx="12" fill="#ffffff" stroke="#1e293b" stroke-width="2.2"/><line x1="39.88" y1="124.56" x2="67.34" y2="116.79" stroke="#3b82f6" stroke-width="2"/><polygon points="72.12,115.44 67.69,119.61 66.16,114.21" fill="#3b82f6" stroke="#3b82f6" stroke-width="1"/><line x1="72.12" y1="124.56" x2="44.66" y2="116.79" stroke="#1e293b" stroke-width="2"/><polygon points="39.88,115.44 45.84,114.21 44.31,119.61" fill="#1e293b" stroke="#1e293b" stroke-width="1"/><rect x="233" y="108" width="62" height="24" rx="12" fill="#ffffff" stroke="#1e293b" stroke-width="2.2"/><line x1="247.88" y1="124.56" x2="275.34" y2="116.79" stroke="#94a3b8" stroke-width="2"/><polygon points="280.12,115.44 275.69,119.61 274.16,114.21" fill="#94a3b8" stroke="#94a3b8" stroke-width="1"/><line x1="280.12" y1="124.56" x2="252.66" y2="116.79" stroke="#1e293b" stroke-width="2"/><polygon points="247.88,115.44 253.84,114.21 252.31,119.61" fill="#1e293b" stroke="#1e293b" stroke-width="1"/><rect x="96" y="62" width="128" height="118" rx="12" fill="none" stroke="#94a3b8" stroke-width="2.2" stroke-dasharray="7 5"/><rect x="100" y="96" width="120" height="48" rx="4" fill="#dbeafe" stroke="#1e293b" stroke-width="2.2"/><rect x="100" y="96" width="22" height="48" rx="4" fill="#1e293b" stroke="none" stroke-width="2.2"/><rect x="204" y="96" width="16" height="48" rx="4" fill="#94a3b8" stroke="none" stroke-width="2.2"/><rect x="119" y="96" width="6" height="48" rx="0" fill="#dbeafe" stroke="none" stroke-width="2.2"/><rect x="201" y="96" width="6" height="48" rx="0" fill="#dbeafe" stroke="none" stroke-width="2.2"/><rect x="100" y="96" width="120" height="48" rx="4" fill="none" stroke="#1e293b" stroke-width="2.2"/><polygon points="150,115 160,110 170,115 160,120" fill="#dbeafe" stroke="#1e293b" stroke-width="2.2"/><polygon points="150,115 160,120 160,130 150,125" fill="#3b82f6" stroke="#1e293b" stroke-width="2.2"/><polygon points="170,115 160,120 160,130 170,125" fill="#94a3b8" stroke="#1e293b" stroke-width="2.2"/><line x1="84" y1="120" x2="96" y2="120" stroke="#94a3b8" stroke-width="2.2"/><line x1="224" y1="120" x2="236" y2="120" stroke="#94a3b8" stroke-width="2.2"/></g></svg>