<svg xmlns="http://www.w3.org/2000/svg" viewBox="0 0 320 240" width="320" height="240" role="img" aria-label="Several kinds of record answering the same kind of question"><rect width="320" height="240" rx="18" fill="#f1f5f9"/><g fill="none" stroke="#1e293b" stroke-width="2.2" stroke-linecap="round" stroke-linejoin="round"><rect x="58" y="40" width="204" height="160" rx="8" fill="#ffffff" stroke="#1e293b" stroke-width="2.2"/><path d="M82 58 L118 58 L118 78 L82 78 L74 68 Z" fill="#3b82f6" stroke="#1e293b" stroke-width="2.2"/><circle cx="85" cy="68" r="2.4" fill="#1e293b"/><rect x="142" y="65" width="96" height="7" rx="3.5" fill="#94a3b8" stroke="none" stroke-width="2.2"/><path d="M82 94 L118 94 L118 114 L82 114 L74 104 Z" fill="#dbeafe" stroke="#1e293b" stroke-width="2.2"/><circle cx="85" cy="104" r="2.4" fill="#1e293b"/><rect x="142" y="101" width="72" height="7" rx="3.5" fill="#94a3b8" stroke="none" stroke-width="2.2"/><path d="M82 130 L118 130 L118 150 L82 150 L74 140 Z" fill="#94a3b8" stroke="#1e293b" stroke-width="2.2"/><circle cx="85" cy="140" r="2.4" fill="#1e293b"/><rect x="142" y="137" width="88" height="7" rx="3.5" fill="#94a3b8" stroke="none" stroke-width="2.2"/><path d="M82 166 L118 166 L118 186 L82 186 L74 176 Z" fill="#dbeafe" stroke="#1e293b" stroke-width="2.2"/><circle cx="85" cy="176" r="2.4" fill="#1e293b"/><rect x="142" y="173" width="60" height="7" rx="3.5" fill="#94a3b8" stroke="none" stroke-width="2.2"/></g></svg>