<svg xmlns="http://www.w3.org/2000/svg" viewBox="0 0 320 240" width="320" height="240" role="img" aria-label="Isolated containers sharing one host bridge to reach the network"><rect width="320" height="240" rx="18" fill="#f1f5f9"/><g fill="none" stroke="#1e293b" stroke-width="2.2" stroke-linecap="round" stroke-linejoin="round"><rect x="36" y="34" width="248" height="140" rx="8" fill="#ffffff" stroke="#1e293b" stroke-width="2.2"/><rect x="63" y="48" width="54" height="54" rx="8" fill="none" stroke="#94a3b8" stroke-width="2.2" stroke-dasharray="5 4"/><polygon points="75,67.5 90,60 105,67.5 90,75" fill="#dbeafe" stroke="#1e293b" stroke-width="2.2"/><polygon points="75,67.5 90,75 90,90 75,82.5" fill="#3b82f6" stroke="#1e293b" stroke-width="2.2"/><polygon points="105,67.5 90,75 90,90 105,82.5" fill="#94a3b8" stroke="#1e293b" stroke-width="2.2"/><line x1="90" y1="102" x2="90" y2="122" stroke="#94a3b8" stroke-width="2.2"/><rect x="133" y="48" width="54" height="54" rx="8" fill="none" stroke="#94a3b8" stroke-width="2.2" stroke-dasharray="5 4"/><polygon points="145,67.5 160,60 175,67.5 160,75" fill="#dbeafe" stroke="#1e293b" stroke-width="2.2"/><polygon points="145,67.5 160,75 160,90 145,82.5" fill="#3b82f6" stroke="#1e293b" stroke-width="2.2"/><polygon points="175,67.5 160,75 160,90 175,82.5" fill="#94a3b8" stroke="#1e293b" stroke-width="2.2"/><line x1="160" y1="102" x2="160" y2="122" stroke="#94a3b8" stroke-width="2.2"/><rect x="203" y="48" width="54" height="54" rx="8" fill="none" stroke="#94a3b8" stroke-width="2.2" stroke-dasharray="5 4"/><polygon points="215,67.5 230,60 245,67.5 230,75" fill="#dbeafe" stroke="#1e293b" stroke-width="2.2"/><polygon points="215,67.5 230,75 230,90 215,82.5" fill="#3b82f6" stroke="#1e293b" stroke-width="2.2"/><polygon points="245,67.5 230,75 230,90 245,82.5" fill="#94a3b8" stroke="#1e293b" stroke-width="2.2"/><line x1="230" y1="102" x2="230" y2="122" stroke="#94a3b8" stroke-width="2.2"/><rect x="72" y="125" width="176" height="26" rx="5" fill="#ffffff" stroke="#1e293b" stroke-width="2.2"/><rect x="130.5" y="139" width="6.5" height="7" rx="1.6" fill="#3b82f6" stroke="none" stroke-width="2.2"/><rect x="141" y="139" width="6.5" height="7" rx="1.6" fill="#94a3b8" stroke="none" stroke-width="2.2"/><rect x="151.5" y="139" width="6.5" height="7" rx="1.6" fill="#3b82f6" stroke="none" stroke-width="2.2"/><rect x="162" y="139" width="6.5" height="7" rx="1.6" fill="#94a3b8" stroke="none" stroke-width="2.2"/><rect x="172.5" y="139" width="6.5" height="7" rx="1.6" fill="#3b82f6" stroke="none" stroke-width="2.2"/><rect x="183" y="139" width="6.5" height="7" rx="1.6" fill="#94a3b8" stroke="none" stroke-width="2.2"/><circle cx="81" cy="134" r="2.4" fill="#3b82f6"/><circle cx="90" cy="134" r="2.4" fill="#dbeafe"/><line x1="160" y1="174" x2="160" y2="190" stroke="#94a3b8" stroke-width="2.2"/><rect x="128" y="192" width="64" height="24" rx="12" fill="#ffffff" stroke="#1e293b" stroke-width="2.2"/><line x1="143.36" y1="208.56" x2="171.85" y2="200.75" stroke="#3b82f6" stroke-width="2"/><polygon points="176.64,199.44 172.17,203.58 170.69,198.16" fill="#3b82f6" stroke="#3b82f6" stroke-width="1"/><line x1="176.64" y1="208.56" x2="148.15" y2="200.75" stroke="#1e293b" stroke-width="2"/><polygon points="143.36,199.44 149.31,198.16 147.83,203.58" fill="#1e293b" stroke="#1e293b" stroke-width="1"/></g></svg>