<svg xmlns="http://www.w3.org/2000/svg" viewBox="0 0 320 240" width="320" height="240" role="img" aria-label="Separate zones with a checkpoint on every path between them"><rect width="320" height="240" rx="18" fill="#f1f5f9"/><g fill="none" stroke="#1e293b" stroke-width="2.2" stroke-linecap="round" stroke-linejoin="round"><rect x="20" y="76" width="72" height="92" rx="12" fill="none" stroke="#3b82f6" stroke-width="2.2" stroke-dasharray="7 5"/><g transform="translate(56 102) scale(0.4)"><rect x="-30" y="-34" width="60" height="42" rx="4" fill="#ffffff" stroke="#1e293b" stroke-width="2.2"/><rect x="-24" y="-28" width="48" height="30" rx="2" fill="#dbeafe" stroke="none" stroke-width="2.2"/><polygon points="-40,8 40,8 34,18 -34,18" fill="#94a3b8" stroke="#1e293b" stroke-width="2.2"/></g><g transform="translate(56 144) scale(0.4)"><rect x="-30" y="-34" width="60" height="42" rx="4" fill="#ffffff" stroke="#1e293b" stroke-width="2.2"/><rect x="-24" y="-28" width="48" height="30" rx="2" fill="#dbeafe" stroke="none" stroke-width="2.2"/><polygon points="-40,8 40,8 34,18 -34,18" fill="#94a3b8" stroke="#1e293b" stroke-width="2.2"/></g><rect x="98" y="96" width="20" height="52" rx="4" fill="#dbeafe" stroke="#1e293b" stroke-width="2.2"/><line x1="98" y1="113.33" x2="118" y2="113.33" stroke="#1e293b" stroke-width="1.8"/><line x1="98" y1="130.67" x2="118" y2="130.67" stroke="#1e293b" stroke-width="1.8"/><line x1="104.67" y1="96" x2="104.67" y2="113.33" stroke="#1e293b" stroke-width="1.8"/><line x1="111.33" y1="96" x2="111.33" y2="113.33" stroke="#1e293b" stroke-width="1.8"/><line x1="101.33" y1="113.33" x2="101.33" y2="130.67" stroke="#1e293b" stroke-width="1.8"/><line x1="108" y1="113.33" x2="108" y2="130.67" stroke="#1e293b" stroke-width="1.8"/><line x1="114.67" y1="113.33" x2="114.67" y2="130.67" stroke="#1e293b" stroke-width="1.8"/><line x1="104.67" y1="130.67" x2="104.67" y2="148" stroke="#1e293b" stroke-width="1.8"/><line x1="111.33" y1="130.67" x2="111.33" y2="148" stroke="#1e293b" stroke-width="1.8"/><rect x="120" y="76" width="72" height="92" rx="12" fill="none" stroke="#94a3b8" stroke-width="2.2" stroke-dasharray="7 5"/><rect x="141" y="95" width="30" height="54" rx="6" fill="#ffffff" stroke="#1e293b" stroke-width="2.2"/><rect x="149" y="103" width="14" height="7.33" rx="2" fill="#dbeafe" stroke="none" stroke-width="2.2"/><circle cx="158" cy="106.67" r="2.1" fill="#94a3b8"/><rect x="149" y="116.33" width="14" height="7.33" rx="2" fill="#dbeafe" stroke="none" stroke-width="2.2"/><circle cx="158" cy="120" r="2.1" fill="#94a3b8"/><rect x="149" y="129.67" width="14" height="7.33" rx="2" fill="#dbeafe" stroke="none" stroke-width="2.2"/><circle cx="158" cy="133.33" r="2.1" fill="#94a3b8"/><rect x="198" y="96" width="20" height="52" rx="4" fill="#dbeafe" stroke="#1e293b" stroke-width="2.2"/><line x1="198" y1="113.33" x2="218" y2="113.33" stroke="#1e293b" stroke-width="1.8"/><line x1="198" y1="130.67" x2="218" y2="130.67" stroke="#1e293b" stroke-width="1.8"/><line x1="204.67" y1="96" x2="204.67" y2="113.33" stroke="#1e293b" stroke-width="1.8"/><line x1="211.33" y1="96" x2="211.33" y2="113.33" stroke="#1e293b" stroke-width="1.8"/><line x1="201.33" y1="113.33" x2="201.33" y2="130.67" stroke="#1e293b" stroke-width="1.8"/><line x1="208" y1="113.33" x2="208" y2="130.67" stroke="#1e293b" stroke-width="1.8"/><line x1="214.67" y1="113.33" x2="214.67" y2="130.67" stroke="#1e293b" stroke-width="1.8"/><line x1="204.67" y1="130.67" x2="204.67" y2="148" stroke="#1e293b" stroke-width="1.8"/><line x1="211.33" y1="130.67" x2="211.33" y2="148" stroke="#1e293b" stroke-width="1.8"/><rect x="220" y="76" width="72" height="92" rx="12" fill="none" stroke="#94a3b8" stroke-width="2.2" stroke-dasharray="7 5"/><rect x="241" y="95" width="30" height="54" rx="6" fill="#ffffff" stroke="#1e293b" stroke-width="2.2"/><rect x="249" y="103" width="14" height="7.33" rx="2" fill="#dbeafe" stroke="none" stroke-width="2.2"/><circle cx="258" cy="106.67" r="2.1" fill="#94a3b8"/><rect x="249" y="116.33" width="14" height="7.33" rx="2" fill="#dbeafe" stroke="none" stroke-width="2.2"/><circle cx="258" cy="120" r="2.1" fill="#94a3b8"/><rect x="249" y="129.67" width="14" height="7.33" rx="2" fill="#dbeafe" stroke="none" stroke-width="2.2"/><circle cx="258" cy="133.33" r="2.1" fill="#94a3b8"/></g></svg>