<svg xmlns="http://www.w3.org/2000/svg" viewBox="0 0 320 240" width="320" height="240" role="img" aria-label="Three messages exchanged to open a connection"><rect width="320" height="240" rx="18" fill="#f1f5f9"/><g fill="none" stroke="#1e293b" stroke-width="2.2" stroke-linecap="round" stroke-linejoin="round"><g transform="translate(60 52) scale(0.44)"><rect x="-30" y="-34" width="60" height="42" rx="4" fill="#ffffff" stroke="#1e293b" stroke-width="2.2"/><rect x="-24" y="-28" width="48" height="30" rx="2" fill="#dbeafe" stroke="none" stroke-width="2.2"/><polygon points="-40,8 40,8 34,18 -34,18" fill="#94a3b8" stroke="#1e293b" stroke-width="2.2"/></g><rect x="240" y="29" width="40" height="50" rx="6" fill="#ffffff" stroke="#1e293b" stroke-width="2.2"/><rect x="248" y="37" width="24" height="6" rx="2" fill="#dbeafe" stroke="none" stroke-width="2.2"/><circle cx="267" cy="40" r="2.1" fill="#3b82f6"/><rect x="248" y="49" width="24" height="6" rx="2" fill="#dbeafe" stroke="none" stroke-width="2.2"/><circle cx="267" cy="52" r="2.1" fill="#94a3b8"/><rect x="248" y="61" width="24" height="6" rx="2" fill="#dbeafe" stroke="none" stroke-width="2.2"/><circle cx="267" cy="64" r="2.1" fill="#94a3b8"/><line x1="60" y1="76" x2="60" y2="214" stroke="#94a3b8" stroke-width="1.8" stroke-dasharray="5 5"/><line x1="260" y1="84" x2="260" y2="214" stroke="#94a3b8" stroke-width="1.8" stroke-dasharray="5 5"/><line x1="72" y1="106" x2="241.56" y2="106" stroke="#3b82f6" stroke-width="2.2"/><polygon points="248,106 241,109.64 241,102.36" fill="#3b82f6" stroke="#3b82f6" stroke-width="1.1"/><line x1="248" y1="144" x2="78.44" y2="144" stroke="#1e293b" stroke-width="2.2"/><polygon points="72,144 79,140.36 79,147.64" fill="#1e293b" stroke="#1e293b" stroke-width="1.1"/><line x1="72" y1="182" x2="241.56" y2="182" stroke="#3b82f6" stroke-width="2.2"/><polygon points="248,182 241,185.64 241,178.36" fill="#3b82f6" stroke="#3b82f6" stroke-width="1.1"/></g></svg>